<?xml version="1.0" encoding="UTF-8"?>
<svg width="54px" height="54px" viewBox="0 0 54 54" version="1.1" xmlns="http://www.w3.org/2000/svg" xmlns:xlink="http://www.w3.org/1999/xlink">
    <!-- Generator: Sketch 58 (84663) - https://sketch.com -->
    <title>反馈</title>
    <desc>Created with Sketch.</desc>
    <defs>
        <circle id="path-1" cx="27" cy="25" r="23"></circle>
        <filter x="-15.2%" y="-10.9%" width="130.4%" height="130.4%" filterUnits="objectBoundingBox" id="filter-3">
            <feOffset dx="0" dy="2" in="SourceAlpha" result="shadowOffsetOuter1"></feOffset>
            <feGaussianBlur stdDeviation="2" in="shadowOffsetOuter1" result="shadowBlurOuter1"></feGaussianBlur>
            <feColorMatrix values="0 0 0 0 0.352941176   0 0 0 0 0.8   0 0 0 0 0.0196078431  0 0 0 1 0" type="matrix" in="shadowBlurOuter1"></feColorMatrix>
        </filter>
    </defs>
    <g id="-" stroke="none" stroke-width="1" fill="none" fill-rule="evenodd">
        <g id="首页2备份-3" transform="translate(-294.000000, -351.000000)">
            <g id="反馈" transform="translate(294.000000, 351.000000)">
                <mask id="mask-2" fill="white">
                    <use xlink:href="#path-1"></use>
                </mask>
                <g id="蒙版">
                    <use fill="black" fill-opacity="1" filter="url(#filter-3)" xlink:href="#path-1"></use>
                    <use fill="#5ACC05" fill-rule="evenodd" xlink:href="#path-1"></use>
                </g>
                <g id="编组-15" transform="translate(9.000000, 16.000000)" fill="#FFFFFF">
                    <circle id="椭圆形" opacity="0.100771949" cx="31.5" cy="25.5" r="9.5"></circle>
                    <circle id="椭圆形备份" opacity="0.197614397" cx="38.5" cy="3.5" r="3.5"></circle>
                    <circle id="椭圆形备份-2" opacity="0.202566964" cx="3.5" cy="23.5" r="3.5"></circle>
                </g>
                <g id="comments" transform="translate(16.000000, 16.000000)" fill="#FFFFFF" fill-rule="nonzero">
                    <path d="M19.9375,0 C21.0765873,0 22,1.02669838 22,2.29319501 L22,16.0523651 C22,17.3188617 21.0765873,18.3455601 19.9375,18.3455601 L15.6210794,18.3455601 C14.3415537,18.3455601 13.1389721,18.9566515 12.384625,19.9901631 L11.9557076,20.5778119 C11.6301069,21.0239091 11.0045222,21.1215907 10.5584251,20.7959901 C10.4867723,20.7436916 10.422397,20.6820916 10.3669938,20.6128115 L9.8690625,19.9901631 C9.03780443,18.9506995 7.77903218,18.3455601 6.44806464,18.3455601 L2.0625,18.3455601 L2.0625,18.3455601 C0.923412703,18.3455601 0,17.3188617 0,16.0523651 L0,2.29319501 C0,1.02669838 0.923412703,0 2.0625,0 C13.2197751,0 19.1781085,0 19.9375,0 Z M16.15625,10.6033096 L8.59375,10.6033096 C8.02420635,10.6033096 7.5625,11.0677684 7.5625,11.6407073 C7.5625,12.2136463 8.02420635,12.6781051 8.59375,12.6781051 L16.15625,12.6781051 C16.7257936,12.6781051 17.1875,12.2136463 17.1875,11.6407073 C17.1875,11.0677684 16.7257936,10.6033096 16.15625,10.6033096 Z M5.15625,10.6033096 C4.58670635,10.6033096 4.125,11.0677684 4.125,11.6407073 C4.125,12.2136463 4.58670635,12.6781051 5.15625,12.6781051 C5.72579365,12.6781051 6.1875,12.2136463 6.1875,11.6407073 C6.1875,11.0677684 5.72579365,10.6033096 5.15625,10.6033096 Z M5.15625,5.76212013 C4.58670635,5.76212013 4.125,6.22657892 4.125,6.79951788 C4.125,7.37245683 4.58670635,7.83691562 5.15625,7.83691562 C5.72579365,7.83691562 6.1875,7.37245683 6.1875,6.79951788 C6.1875,6.22657892 5.72579365,5.76212013 5.15625,5.76212013 Z M16.15625,5.76212013 L8.59375,5.76212013 C8.02420635,5.76212013 7.5625,6.22657892 7.5625,6.79951788 C7.5625,7.37245683 8.02420635,7.83691562 8.59375,7.83691562 L16.15625,7.83691562 C16.7257936,7.83691562 17.1875,7.37245683 17.1875,6.79951788 C17.1875,6.22657892 16.7257936,5.76212013 16.15625,5.76212013 Z" id="形状"></path>
                </g>
            </g>
        </g>
    </g>
</svg>