<?xml version="1.0" encoding="UTF-8"?>
<svg width="54px" height="54px" viewBox="0 0 54 54" version="1.1" xmlns="http://www.w3.org/2000/svg" xmlns:xlink="http://www.w3.org/1999/xlink">
    <!-- Generator: Sketch 58 (84663) - https://sketch.com -->
    <title>公告图标</title>
    <desc>Created with Sketch.</desc>
    <defs>
        <circle id="path-1" cx="23" cy="23" r="23"></circle>
        <filter x="-15.2%" y="-10.9%" width="130.4%" height="130.4%" filterUnits="objectBoundingBox" id="filter-3">
            <feOffset dx="0" dy="2" in="SourceAlpha" result="shadowOffsetOuter1"></feOffset>
            <feGaussianBlur stdDeviation="2" in="shadowOffsetOuter1" result="shadowBlurOuter1"></feGaussianBlur>
            <feColorMatrix values="0 0 0 0 0.992156863   0 0 0 0 0.431372549   0 0 0 0 0.168627451  0 0 0 1 0" type="matrix" in="shadowBlurOuter1"></feColorMatrix>
        </filter>
    </defs>
    <g id="-" stroke="none" stroke-width="1" fill="none" fill-rule="evenodd">
        <g id="首页2备份-3" transform="translate(-94.000000, -351.000000)">
            <g id="公告图标" transform="translate(98.000000, 353.000000)">
                <mask id="mask-2" fill="white">
                    <use xlink:href="#path-1"></use>
                </mask>
                <g id="蒙版">
                    <use fill="black" fill-opacity="1" filter="url(#filter-3)" xlink:href="#path-1"></use>
                    <use fill="#FD6E2B" fill-rule="evenodd" xlink:href="#path-1"></use>
                </g>
                <g id="编组-15备份-3" mask="url(#mask-2)" fill="#FFFFFF">
                    <g transform="translate(4.250000, 14.000000)">
                        <circle id="椭圆形" opacity="0.0969587054" cx="31.5" cy="25.5" r="9.5"></circle>
                        <circle id="椭圆形备份" opacity="0.129696801" cx="38.5" cy="3.5" r="3.5"></circle>
                        <circle id="椭圆形备份-2" opacity="0.129696801" cx="3.5" cy="23.5" r="3.5"></circle>
                    </g>
                </g>
                <g id="suona" mask="url(#mask-2)" fill="#FFFFFF" fill-rule="nonzero">
                    <g transform="translate(12.000000, 13.000000)" id="形状">
                        <path d="M15.2905729,1.63628533 C15.3515193,1.8554195 15.3826266,2.08389173 15.3828125,2.31375275 L15.3828125,12.7473512 C15.3828125,13.4667791 15.0805999,14.1428057 14.5698984,14.5663497 C14.059197,14.9898937 13.401457,15.1099132 12.8001042,14.8892886 L6.79926042,12.6888324 C6.22218128,14.0116178 5.93615177,15.4743219 5.9658099,16.9509503 L5.97569271,17.2487958 L6.08110938,19.4162414 C6.1211771,20.232449 5.58009152,20.9349854 4.86420573,20.9962485 L4.7653776,20.9999999 L4.05710938,20.9999999 C3.41810209,21.0003137 2.87099289,20.4785149 2.75916667,19.7621024 L2.74598958,19.6488161 L2.41129167,15.8360925 C2.28687661,14.4184284 2.36025808,12.9872757 2.62871354,11.5957316 L2.70052865,11.2423682 L2.69986979,11.2468697 L1.546875,11.2468697 C0.819124783,11.2468697 0.229166667,10.5750812 0.229166667,9.7463881 L0.229166667,5.24494346 C0.229166667,4.41625038 0.819124783,3.74446191 1.546875,3.74446191 L2.86458333,3.74446191 L12.8113047,0.168064135 C13.8519591,-0.205719268 14.9617429,0.451494078 15.2905729,1.63628533 Z M17.5781146,11.4359303 L19.5546771,12.9364119 C20.0019636,13.2841127 20.1201801,13.9769673 19.819769,14.490087 C19.5193578,15.0032066 18.9122363,15.1454302 18.4583437,14.8090128 L16.4817812,13.3085313 C16.0344948,12.9608305 15.9162782,12.2679759 16.2166894,11.7548562 C16.5171005,11.2417365 17.1242221,11.0995129 17.5781146,11.4359303 L17.5781146,11.4359303 Z M20.3242188,6.37030462 C20.8700314,6.37030462 21.3125,6.87414597 21.3125,7.49566578 C21.3125,8.11718559 20.8700314,8.62102694 20.3242188,8.62102694 L18.3476563,8.62102694 C17.8018436,8.62102694 17.359375,8.11718559 17.359375,7.49566578 C17.359375,6.87414597 17.8018436,6.37030462 18.3476563,6.37030462 L20.3242188,6.37030462 Z M18.4583437,0.18231871 C18.9122363,-0.154098685 19.5193578,-0.011875091 19.819769,0.501244604 C20.1201801,1.0143643 20.0019636,1.70721884 19.5546771,2.05491968 L17.5781146,3.55540123 C17.2843678,3.78374708 16.9055241,3.81474567 16.5861241,3.63657008 C16.266724,3.4583945 16.0560375,3.09852977 16.0344479,2.69427524 C16.0128584,2.29002072 16.1836961,1.90373592 16.4817812,1.68280026 L18.4583437,0.18231871 Z"></path>
                    </g>
                </g>
            </g>
        </g>
    </g>
</svg>