<?xml version="1.0" encoding="UTF-8"?>
<svg width="54px" height="54px" viewBox="0 0 54 54" version="1.1" xmlns="http://www.w3.org/2000/svg" xmlns:xlink="http://www.w3.org/1999/xlink">
    <!-- Generator: Sketch 58 (84663) - https://sketch.com -->
    <title>首页图标-武馆</title>
    <desc>Created with Sketch.</desc>
    <defs>
        <circle id="path-1" cx="23" cy="23" r="23"></circle>
        <filter x="-15.2%" y="-10.9%" width="130.4%" height="130.4%" filterUnits="objectBoundingBox" id="filter-3">
            <feOffset dx="0" dy="2" in="SourceAlpha" result="shadowOffsetOuter1"></feOffset>
            <feGaussianBlur stdDeviation="2" in="shadowOffsetOuter1" result="shadowBlurOuter1"></feGaussianBlur>
            <feColorMatrix values="0 0 0 0 0.301960784   0 0 0 0 0.674509804   0 0 0 0 0.992156863  0 0 0 1 0" type="matrix" in="shadowBlurOuter1"></feColorMatrix>
        </filter>
    </defs>
    <g id="-" stroke="none" stroke-width="1" fill="none" fill-rule="evenodd">
        <g id="首页2备份-3" transform="translate(-27.000000, -351.000000)">
            <g id="首页图标-武馆" transform="translate(27.000000, 351.000000)">
                <g id="编组-15备份-3" transform="translate(4.000000, 2.000000)">
                    <mask id="mask-2" fill="white">
                        <use xlink:href="#path-1"></use>
                    </mask>
                    <g id="蒙版">
                        <use fill="black" fill-opacity="1" filter="url(#filter-3)" xlink:href="#path-1"></use>
                        <use fill="#4DACFD" fill-rule="evenodd" xlink:href="#path-1"></use>
                    </g>
                    <g mask="url(#mask-2)" fill="#FFFFFF">
                        <g transform="translate(4.250000, 14.000000)">
                            <circle id="椭圆形" opacity="0.0969587054" cx="31.5" cy="25.5" r="9.5"></circle>
                            <circle id="椭圆形备份" opacity="0.129696801" cx="38.5" cy="3.5" r="3.5"></circle>
                            <circle id="椭圆形备份-2" opacity="0.129696801" cx="3.5" cy="23.5" r="3.5"></circle>
                        </g>
                    </g>
                </g>
                <path d="M24.4473484,17.332829 C24.0166868,15.110943 24.6305325,14 26.2888855,14 C28.776415,14 28.1671322,17.014199 27.7673847,17.332829 C27.3676372,17.651459 26.7297498,17.8633686 26.7297498,17.8633686 C26.7297498,17.8633686 26.7741406,18.9549356 28.1230007,18.9549356 C29.4718609,18.9549356 30.9623275,19.0828332 32.9692684,18.7711921 C33.8798535,18.6241472 35.3160041,18.292049 37.2777204,17.7748973 C38.1133882,17.8000313 38.2239137,17.9893945 37.6092969,18.342987 C37.6071522,18.6342303 35.539346,19.2597337 34.1310989,19.6917219 C32.3289134,20.244553 30.2359702,20.4667462 30.2359702,20.8787294 C29.8392274,21.4257086 30.4929691,21.4827763 31.0053618,21.1807529 C31.5177545,20.8787294 32.8146369,21.7105088 32.8146369,22.8658479 C32.8146369,24.021187 32.762329,27.0618399 31.4991496,27.6638226 C30.2359702,28.2658053 31.0053618,29.5941264 31.0053618,29.5941264 C31.0053618,29.5941264 28.9084894,29.9997892 28.9084894,28.1102278 C28.9084894,26.2206663 30.4935021,26.2800889 30.2359702,25.8006736 C29.9784383,25.3212582 28.687025,25.0304201 28.4050129,25.8006736 C28.2170048,26.3141759 28.1230007,29.114273 28.1230007,34.2009651 C27.5568557,36.0669884 26.945484,37 26.2888855,37 C25.3039877,37 26.0866092,28.8127577 24.9712855,28.1102278 C23.8559617,27.4076978 23.2501516,27.4885207 22.6306678,26.2206663 C22.3274648,24.591245 23.3416183,23.4717718 23.3416183,23.4717718 C23.3416183,23.4717718 23.5799383,18.9606183 19.5537377,17.8633686 C18.4658,17.6883002 17.5234166,17.3690196 16.7265874,16.9055271 C16.5549993,16.8057193 16.3128035,16.6409614 16,16.4112533 C16.7576435,15.829508 17.6882635,15.7687577 18.7918601,16.2290027 C20.4472551,16.9193701 20.8437814,17.1685177 22.4717433,17.5159432 C23.5570513,17.7475602 24.2155864,17.6865221 24.4473484,17.332829 Z" id="路径-39" fill="#FFFFFF"></path>
            </g>
        </g>
    </g>
</svg>