<?xml version="1.0" encoding="UTF-8"?>
<svg width="54px" height="54px" viewBox="0 0 54 54" version="1.1" xmlns="http://www.w3.org/2000/svg" xmlns:xlink="http://www.w3.org/1999/xlink">
    <!-- Generator: Sketch 58 (84663) - https://sketch.com -->
    <title>yuyue icon</title>
    <desc>Created with Sketch.</desc>
    <defs>
        <circle id="path-1" cx="23" cy="23" r="23"></circle>
        <filter x="-15.2%" y="-10.9%" width="130.4%" height="130.4%" filterUnits="objectBoundingBox" id="filter-3">
            <feOffset dx="0" dy="2" in="SourceAlpha" result="shadowOffsetOuter1"></feOffset>
            <feGaussianBlur stdDeviation="2" in="shadowOffsetOuter1" result="shadowBlurOuter1"></feGaussianBlur>
            <feColorMatrix values="0 0 0 0 0.592156863   0 0 0 0 0.450980392   0 0 0 0 0.952941176  0 0 0 1 0" type="matrix" in="shadowBlurOuter1"></feColorMatrix>
        </filter>
    </defs>
    <g id="-" stroke="none" stroke-width="1" fill="none" fill-rule="evenodd">
        <g id="首页2备份-3" transform="translate(-160.000000, -351.000000)">
            <g id="yuyuejilu" transform="translate(160.000000, 351.000000)">
                <g id="编组-15备份-2" transform="translate(4.000000, 2.000000)">
                    <mask id="mask-2" fill="white">
                        <use xlink:href="#path-1"></use>
                    </mask>
                    <g id="蒙版">
                        <use fill="black" fill-opacity="1" filter="url(#filter-3)" xlink:href="#path-1"></use>
                        <use fill="#9773F3" fill-rule="evenodd" xlink:href="#path-1"></use>
                    </g>
                    <g mask="url(#mask-2)" fill="#FFFFFF">
                        <g transform="translate(3.500000, 14.000000)">
                            <circle id="椭圆形" opacity="0.104096912" cx="31.5" cy="25.5" r="9.5"></circle>
                            <circle id="椭圆形备份" opacity="0.129696801" cx="38.5" cy="3.5" r="3.5"></circle>
                            <circle id="椭圆形备份-2" opacity="0.164736793" cx="3.5" cy="23.5" r="3.5"></circle>
                        </g>
                    </g>
                </g>
                <path d="M20.4639061,20.5309858 C21.2034725,20.5309858 21.8051985,19.7392175 21.8051985,18.7594754 L21.8051985,16.7715104 C21.8051985,15.7946164 21.2061232,15 20.4639061,15 C19.7243397,15 19.1226136,15.7917683 19.1226136,16.7715104 L19.1226136,18.7594754 C19.1252644,19.7392175 19.7243397,20.5309858 20.4639061,20.5309858 Z M29.5428124,29.5537269 C30.9265173,28.0670252 33.2008827,28.0755695 34.6004922,29.5337902 C34.6561585,29.5167017 36.3818134,27.8932919 36.3818134,27.8932919 L36.3738611,18.7366907 C36.3738611,17.0022055 34.9185853,17.1132809 34.9185853,17.1132809 L34.1763681,17.1132809 C34.1763681,17.1132809 34.1790189,18.7366907 34.1763681,19.9442798 C34.1737174,21.1518689 33.0789471,21.1661093 33.0789471,21.1661093 C33.0789471,21.1661093 32.0080337,21.1632612 30.8072324,21.1661093 C29.606431,21.1689574 29.6620973,19.9613683 29.6620973,19.9613683 L29.6620973,17.116129 L22.7859855,17.116129 L22.7859855,19.9328875 C22.7859855,21.1945902 21.646152,21.1661093 21.646152,21.1661093 C21.646152,21.1661093 20.5063185,21.1689574 19.3929927,21.1661093 C18.279667,21.1632612 18.2637623,19.9300394 18.2637623,19.9300394 L18.2637623,17.116129 L17.5135929,17.116129 C16.0848248,17.116129 16,18.7338426 16,18.7338426 C16,18.7338426 16.0026508,32.7635214 16.0026508,34.3726908 C16.0026508,35.9818602 17.5188944,35.9961007 17.5188944,35.9961007 L30.6667413,35.9961007 L29.7469221,34.9081313 C28.3446619,33.4071892 28.1458537,31.057517 29.5428124,29.5537269 Z M31.9232089,20.5309858 C32.6627753,20.5309858 33.2645013,19.7392175 33.2645013,18.7594754 L33.2645013,16.7715104 C33.2645013,15.7946164 32.6150613,15 31.8728442,15 C31.1332778,15 30.5819165,15.7917683 30.5845577,16.7715104 L30.5845577,18.7594754 C30.5845577,19.7392175 31.1836425,20.5309858 31.9232089,20.5309858 Z M37.662138,31.2170099 C37.1399352,30.6530886 36.1936084,30.7584678 35.5494699,31.4505531 L34.4997628,32.5812438 L33.5136742,31.4106799 C32.8695358,30.7185946 31.9258597,30.6160635 31.4010061,31.1771367 C30.8788033,31.741058 30.9742312,32.7578252 31.6183697,33.4470624 L33.3996909,35.3638252 C33.4474049,35.4150908 33.5004204,35.4663564 33.5534359,35.5119258 C33.5852452,35.5546471 33.6170545,35.5973684 33.6541654,35.6372416 C34.0120201,36.0217334 34.4679535,36.0957837 34.9875055,35.8821772 C35.0431718,35.8622405 35.0961873,35.8366078 35.1492028,35.8052788 C35.3321063,35.7084438 35.5097083,35.5745837 35.666104,35.4036985 L37.4474252,33.4869356 C38.0889129,32.7976985 38.1869916,31.7809312 37.662138,31.2170099 L37.662138,31.2170099 Z" id="形状" fill="#FFFFFF" fill-rule="nonzero"></path>
            </g>
        </g>
    </g>
</svg>