<?xml version="1.0" encoding="UTF-8"?>
<svg width="18px" height="18px" viewBox="0 0 18 18" version="1.1" xmlns="http://www.w3.org/2000/svg" xmlns:xlink="http://www.w3.org/1999/xlink">
    <!-- Generator: Sketch 58 (84663) - https://sketch.com -->
    <title>icon_home_defult备份</title>
    <desc>Created with Sketch.</desc>
    <g id="-" stroke="none" stroke-width="1" fill="none" fill-rule="evenodd">
        <g id="首页2备份-3" transform="translate(-40.000000, -218.000000)">
            <g id="-mockplus-" transform="translate(16.000000, 64.000000)">
                <g id="展开菜单-首页">
                    <g id="编组-15" transform="translate(24.000000, 154.000000)">
                        <g id="编组-14" transform="translate(0.000000, 1.000000)">
                            <g id="编组-11">
                                <g id="编组-10">
                                    <g id="编组-5">
                                        <ellipse id="椭圆形" fill="#595959" transform="translate(15.000000, 2.880499) rotate(-8.000000) translate(-15.000000, -2.880499) " cx="15" cy="2.8804987" rx="2.14214963" ry="2.08576443"></ellipse>
                                        <path d="M3.00813397,5.07105263 C4.19120197,5.07551699 5.14662638,4.13626232 5.14214989,2.97315263 C5.13764184,1.81004295 4.17493403,0.863524235 2.99186603,0.859027952 C1.80879803,0.854563593 0.853373621,1.79381827 0.857850112,2.95692795 C0.862358157,4.12003764 1.82506597,5.06655635 3.00813397,5.07105263 Z" id="椭圆形备份" fill="#595959" transform="translate(3.000000, 2.965040) scale(-1, 1) rotate(-8.000000) translate(-3.000000, -2.965040) "></path>
                                        <g id="编组-12" transform="translate(0.900000, 0.000000)" fill="#FFFFFF" stroke="#595959" stroke-width="1.2">
                                            <rect id="矩形" x="0.6" y="0.6" width="15" height="14.7157895" rx="7.35789474"></rect>
                                        </g>
                                    </g>
                                    <path d="M6.01700562,11.2677933 C7.00589811,11.8861264 8.00022957,12.1952879 9,12.1952781 C9.99977043,12.1952683 11.0031244,11.886087 12.010062,11.2677344" id="路径-68" stroke="#CECFD0" stroke-linecap="round"></path>
                                </g>
                            </g>
                            <path d="M9,9.84354798 L9,12.0278925" id="路径-67" stroke="#CECFD0" stroke-linecap="round"></path>
                        </g>
                        <circle id="椭圆形" stroke="#595959" fill="#D8D8D8" cx="6" cy="7" r="1"></circle>
                        <circle id="椭圆形" stroke="#595959" fill="#D8D8D8" cx="12" cy="7" r="1"></circle>
                        <path d="M8.56204994,9 L9.43795006,9 C9.84201542,9 10.1695751,9.32755969 10.1695751,9.73162505 C10.1695751,9.90277886 10.10957,10.068516 10,10.2 L9.76822128,10.4781345 C9.4146572,10.9024114 8.7840925,10.9597354 8.3598156,10.6061713 C8.31335254,10.5674521 8.27049794,10.5245975 8.23177872,10.4781345 L8,10.2 C7.74132366,9.88958839 7.78326338,9.42825146 8.09367499,9.16957512 C8.22515899,9.06000512 8.39089613,9 8.56204994,9 Z" id="路径-9" fill="#979797"></path>
                    </g>
                </g>
            </g>
        </g>
    </g>
</svg>