<?xml version="1.0" encoding="UTF-8"?>
<svg width="18px" height="18px" viewBox="0 0 18 18" version="1.1" xmlns="http://www.w3.org/2000/svg" xmlns:xlink="http://www.w3.org/1999/xlink">
    <!-- Generator: Sketch 58 (84663) - https://sketch.com -->
    <title>icon_home_defult备份</title>
    <desc>Created with Sketch.</desc>
    <g id="-" stroke="none" stroke-width="1" fill="none" fill-rule="evenodd">
        <g id="首页2备份-3" transform="translate(-40.000000, -152.000000)">
            <g id="-mockplus-" transform="translate(16.000000, 64.000000)">
                <g id="展开菜单-首页">
                    <g id="编组-9" transform="translate(24.000000, 87.000000)">
                        <g id="编组-16" transform="translate(0.000000, 0.666667)">
                            <path d="M4.5,15.8333333 L3,17.3333333" id="路径-8" stroke="#ff8300" stroke-width="1.5" stroke-linecap="round"></path>
                            <path d="M14.5,15.8333333 L13,17.3333333" id="路径-8" stroke="#ff8300" stroke-width="1.5" stroke-linecap="round" transform="translate(14.000000, 16.700000) scale(-1, 1) translate(-14.000000, -16.700000) "></path>
                            <path d="M1.56617022,3.72665417 C1.50504541,3.72807567 1.45583181,3.77728927 1.4544103,3.83841408 C1.45438873,3.83980585 1.45438873,3.83980585 1.4544103,3.84119761 C1.45517895,3.87424959 1.48259599,3.9004204 1.51564796,3.89965175 L4.2520116,3.83601538 C4.31313641,3.83459387 4.36235001,3.78538027 4.36377152,3.72425546 C4.36379309,3.7228637 4.36379309,3.7228637 4.36377152,3.72147193 C4.36300287,3.68841996 4.33558583,3.66224915 4.30253385,3.6630178 L1.56617022,3.72665417 Z" id="矩形" stroke="#ff8300" fill="#ff8300" transform="translate(2.909091, 3.781335) rotate(-225.000000) translate(-2.909091, -3.781335) "></path>
                            <path d="M13.3549805,3.72665417 C13.2938557,3.72807567 13.2446421,3.77728927 13.2432206,3.83841408 C13.243199,3.83980585 13.243199,3.83980585 13.2432206,3.84119761 C13.2439892,3.87424959 13.2714063,3.9004204 13.3044582,3.89965175 L16.0408219,3.83601538 C16.1019467,3.83459387 16.1511603,3.78538027 16.1525818,3.72425546 C16.1526034,3.7228637 16.1526034,3.7228637 16.1525818,3.72147193 C16.1518131,3.68841996 16.1243961,3.66224915 16.0913441,3.6630178 L13.3549805,3.72665417 Z" id="矩形备份-2" stroke="#ff8300" fill="#ff8300" transform="translate(14.697901, 3.781335) scale(-1, 1) rotate(-225.000000) translate(-14.697901, -3.781335) "></path>
                            <ellipse id="椭圆形" stroke="#ff8300" stroke-width="1.2" cx="9" cy="10.4" rx="6.4" ry="6.33333333"></ellipse>
                            <path d="M7.6,7.11111111 C7.93137085,7.11111111 8.2,7.37974026 8.2,7.71111111 L8.2,10.3611111 C8.2,10.7753247 7.86421356,11.1111111 7.45,11.1111111 L7,11.1111111 L7,11.1111111 L7,7.71111111 C7,7.37974026 7.26862915,7.11111111 7.6,7.11111111 Z" id="矩形" fill="#FEC790"></path>
                            <path d="M9,9.06666667 C9.36818983,9.06666667 9.66666667,9.3651435 9.66666667,9.73333333 L9.66666667,12.4 C9.66666667,12.7681898 9.36818983,13.0666667 9,13.0666667 C8.63181017,13.0666667 8.33333333,12.7681898 8.33333333,12.4 L8.33333333,9.73333333 C8.33333333,9.3651435 8.63181017,9.06666667 9,9.06666667 Z" id="矩形" fill="#FEC790" transform="translate(9.000000, 11.066667) rotate(-270.000000) translate(-9.000000, -11.066667) "></path>
                        </g>
                    </g>
                </g>
            </g>
        </g>
    </g>
</svg>