<?xml version="1.0" encoding="UTF-8"?>
<svg width="18px" height="18px" viewBox="0 0 18 18" version="1.1" xmlns="http://www.w3.org/2000/svg" xmlns:xlink="http://www.w3.org/1999/xlink">
    <!-- Generator: Sketch 58 (84663) - https://sketch.com -->
    <title>icon_home_defult</title>
    <desc>Created with Sketch.</desc>
    <g id="-" stroke="none" stroke-width="1" fill="none" fill-rule="evenodd">
        <g id="首页2备份-3" transform="translate(-40.000000, -119.000000)">
            <g id="-mockplus-" transform="translate(16.000000, 64.000000)">
                <g id="展开菜单-首页">
                    <g id="编组-2" transform="translate(24.000000, 55.000000)">
                        <g id="shangpu" transform="translate(1.000000, 1.000000)" fill="#595959" fill-rule="nonzero" stroke="#595959" stroke-width="0.2">
                            <path d="M2.99158856,9.13903537 C2.90122567,9.13903537 2.81278539,9.13491961 2.72049988,9.1266881 C1.96875751,9.05672026 1.27469358,8.67601286 0.769045902,8.05247588 C0.273011295,7.44334405 0,6.66340836 0,5.8526045 C0,5.43691318 0.0922855083,5.02122186 0.265320836,4.65080386 L1.65729392,1.66893891 C1.89185292,1.16681672 2.25138188,0.747009646 2.6974285,0.450675241 C3.14347513,0.156398714 3.65489065,0 4.17976448,0 L11.8163903,0 C12.3412641,0 12.8526796,0.156398714 13.2987263,0.450675241 C13.7447729,0.744951768 14.1043019,1.16681672 14.3388609,1.66893891 L15.7346792,4.65903537 C15.9038693,5.02327974 15.9961548,5.43073955 16,5.83614148 L16,5.93903537 C16,7.70263666 14.6599375,9.13697749 13.0122567,9.13697749 C11.962509,9.13697749 11.0396539,8.55459807 10.505167,7.67794212 C9.97260274,8.55665595 9.04782504,9.13697749 7.99807739,9.13697749 C6.94832973,9.13697749 6.02547465,8.55459807 5.49098774,7.67794212 C5.3544821,7.90430868 5.19105984,8.11215434 5.0026436,8.29736334 C4.44893055,8.84681672 3.74140832,9.13903537 2.99158856,9.13903537 Z M4.17976448,1.02893891 C3.47031963,1.02893891 2.83393415,1.45080386 2.51670272,2.12784566 L1.12472963,5.10971061 C1.01706321,5.33813505 0.961307378,5.59536977 0.961307378,5.85054662 C0.961307378,7.01530547 1.77072819,8.00308682 2.80509493,8.09980707 C3.38187936,8.1533119 3.93366979,7.95369775 4.35664504,7.53800643 C4.77385244,7.12848875 5.01417928,6.54610932 5.01417928,5.93903537 C5.01417928,5.65504823 5.22951214,5.42456592 5.49483297,5.42456592 C5.76015381,5.42456592 5.97548666,5.65504823 5.97548666,5.93903537 C5.97548666,7.13466238 6.88488344,8.10803859 8.00192261,8.10803859 C9.11896179,8.10803859 10.0283586,7.13466238 10.0283586,5.93903537 C10.0283586,5.65504823 10.2436914,5.42456592 10.5090123,5.42456592 C10.7743331,5.42456592 10.9896659,5.65504823 10.9896659,5.93903537 C10.9896659,7.13466238 11.8990627,8.10803859 13.0161019,8.10803859 C14.1331411,8.10803859 15.0406152,7.13672026 15.0425379,5.94109325 L15.0425379,5.84437299 C15.0406152,5.5933119 14.9848594,5.3422508 14.8791156,5.11794212 L13.4832973,2.12784566 C13.1660658,1.44874598 12.5296804,1.02893891 11.8202355,1.02893891 L4.17976448,1.02893891 Z M12.1874549,16 L3.81446768,16 C2.31098294,16 1.08819995,14.6911897 1.08819995,13.0819293 L1.08819995,10.577492 C1.08819995,10.2935048 1.3035328,10.0630225 1.56885364,10.0630225 C1.83417448,10.0630225 2.04950733,10.2935048 2.04950733,10.577492 L2.04950733,13.0819293 C2.04950733,14.1232154 2.84162461,14.9710611 3.81446768,14.9710611 L12.1893776,14.9710611 C13.1622206,14.9710611 13.9543379,14.1232154 13.9543379,13.0819293 L13.9543379,10.577492 C13.9543379,10.2935048 14.1696708,10.0630225 14.4349916,10.0630225 C14.7003124,10.0630225 14.9156453,10.2935048 14.9156453,10.577492 L14.9156453,13.0819293 C14.9137227,14.6891318 13.6909397,16 12.1874549,16 L12.1874549,16 Z" id="形状"></path>
                        </g>
                        <rect id="矩形" fill="#CECFD0" x="6.64705882" y="11" width="4.70588235" height="1" rx="0.5"></rect>
                    </g>
                </g>
            </g>
        </g>
    </g>
</svg>