<?xml version="1.0" encoding="UTF-8"?>
<svg width="17px" height="14px" viewBox="0 0 17 14" version="1.1" xmlns="http://www.w3.org/2000/svg" xmlns:xlink="http://www.w3.org/1999/xlink">
    <!-- Generator: Sketch 58 (84663) - https://sketch.com -->
    <title>添加孩子图标</title>
    <desc>Created with Sketch.</desc>
    <g id="熊小武" stroke="none" stroke-width="1" fill="none" fill-rule="evenodd">
        <g id="我的备份-7" transform="translate(-101.000000, -262.000000)">
            <rect fill="#F7F7F7" x="0" y="0" width="375" height="747"></rect>
            <g id="编组-27" transform="translate(101.000000, 259.000000)" fill="#4D4D4D" fill-rule="nonzero" opacity="0.7007766" stroke="#4D4D4D">
                <g id="添加孩子" transform="translate(0.000000, 3.000000)">
                    <path d="M8.60499824,12.9847779 C8.47559865,12.9847779 8.34435051,12.9590301 8.22049662,12.9092508 C7.0984174,12.4475056 1.47508132,9.92593029 1.02957705,5.55394097 C0.909420293,4.37983783 1.31055899,3.20916775 2.12947349,2.34060607 C2.90402241,1.52010709 3.97249323,1.04462965 5.13708946,1.00343305 C6.4883908,0.955370349 7.75465813,1.48406007 8.60499824,2.43501495 C9.45718691,1.48406007 10.7234542,0.953653824 12.072907,1.00343305 C13.2375032,1.04462965 14.3059741,1.52010709 15.080523,2.34060607 C15.8994375,3.20916775 16.2987276,4.37983783 16.1804194,5.55394097 C16.0953854,6.39675477 15.8107063,7.2275529 15.335625,8.022304 C15.2431967,8.17507473 15.0361574,8.23000353 14.8734837,8.1458938 C14.7089613,8.06178408 14.6498072,7.86953327 14.7403869,7.71676254 C15.1692541,6.99925507 15.4262047,6.25256667 15.5038445,5.49557912 C15.6055156,4.49312849 15.2653795,3.49582743 14.5703189,2.75772166 C13.9196239,2.06767858 13.0249182,1.66944477 12.0488757,1.63511427 C10.7715169,1.59048462 9.59398075,2.15178831 8.88967731,3.13879022 C8.82682609,3.226333 8.71960929,3.27954527 8.6068468,3.27954527 C8.49223574,3.27954527 8.38686751,3.226333 8.32401629,3.13879022 C7.61786429,2.15178831 6.4403281,1.59048462 5.16481794,1.63511427 C4.18877539,1.66944477 3.29406972,2.06767858 2.64337468,2.75772166 C1.94831407,3.49582743 1.60817803,4.49312849 1.70984913,5.49557912 C2.11653353,9.51396427 7.43300774,11.893068 8.49593287,12.3290654 C8.56617836,12.3582463 8.64381811,12.3582463 8.71591216,12.3290654 C9.03386542,12.1986095 9.54037235,11.9754612 10.1503989,11.6527545 C10.3130727,11.5669282 10.520112,11.618424 10.6143889,11.7711947 C10.7068171,11.9222489 10.6495116,12.1162163 10.4868379,12.2020425 C9.85277991,12.5367649 9.32409019,12.7702123 8.99319698,12.9058178 C8.86564596,12.9590301 8.73439782,12.9847779 8.60499824,12.9847779 L8.60499824,12.9847779 Z" id="路径" stroke-width="0.8"></path>
                    <path d="M14.5907764,10.12285 L10.4943554,10.12285 C10.3058017,10.12285 10.1542193,9.98209499 10.1542193,9.80700943 C10.1542193,9.63192387 10.3058017,9.49116882 10.4943554,9.49116882 L14.5907764,9.49116882 C14.7793301,9.49116882 14.9309124,9.63192387 14.9309124,9.80700943 C14.9309124,9.98037846 14.7793301,10.12285 14.5907764,10.12285 Z" id="路径" stroke-width="0.7"></path>
                    <path d="M12.5425659,12.0247598 C12.3540122,12.0247598 12.2024298,11.8840047 12.2024298,11.7089192 L12.2024298,7.90509967 C12.2024298,7.73001411 12.3540122,7.58925906 12.5425659,7.58925906 C12.7311195,7.58925906 12.8827019,7.73001411 12.8827019,7.90509967 L12.8827019,11.7089192 C12.8827019,11.8822882 12.7311195,12.0247598 12.5425659,12.0247598 Z" id="路径" stroke-width="0.7"></path>
                </g>
            </g>
        </g>
    </g>
</svg>