<?xml version="1.0" encoding="UTF-8"?>
<svg width="15px" height="12px" viewBox="0 0 15 12" version="1.1" xmlns="http://www.w3.org/2000/svg" xmlns:xlink="http://www.w3.org/1999/xlink">
    <!-- Generator: Sketch 58 (84663) - https://sketch.com -->
    <title>bianji</title>
    <desc>Created with Sketch.</desc>
    <g id="熊小武" stroke="none" stroke-width="1" fill="none" fill-rule="evenodd" opacity="0.499232701">
        <g id="我的备份-7" transform="translate(-153.000000, -314.000000)" fill="#636363" fill-rule="nonzero">
            <g id="编组-20" transform="translate(16.000000, 293.000000)">
                <g id="bianji" transform="translate(137.333333, 21.000000)">
                    <path d="M4.78572594,10.5938089 L12.3672301,3.51172263 C12.4883068,3.39872932 12.5563375,3.24540763 12.5563375,3.08552863 C12.5563375,2.92564963 12.4883068,2.77232793 12.3672301,2.65933463 L10.9991696,1.38129487 C10.8782175,1.26818515 10.7140963,1.20463098 10.542956,1.20463098 C10.3718157,1.20463098 10.2076946,1.26818515 10.0867424,1.38129487 L2.50639914,8.46338114 L2.34329987,10.746176 L4.78630636,10.5938089 L4.78572594,10.5938089 Z M1.00251939,11.420712 L1.25210191,7.93145199 L9.17431518,0.529449101 C9.53712461,0.190451835 10.0292392,0 10.5423756,0 C11.055512,0 11.5476266,0.190451835 11.910436,0.529449101 L13.2784964,1.80748886 C13.6413715,2.14642483 13.8452381,2.60615744 13.8452381,3.08552863 C13.8452381,3.56489981 13.6413715,4.02463243 13.2784964,4.36356839 L5.35512232,11.7661135 L1.62009101,11.9987308 C1.45274124,12.0094397 1.28861548,11.9519891 1.17000404,11.8411825 C1.0513926,11.7303759 0.98989544,11.5770499 1.00135855,11.420712 L1.00251939,11.420712 Z M9.17489561,2.23368286 L8.2630488,3.0849864 L10.542956,5.21595639 L11.4548028,4.36356839 L9.17489561,2.23368286 Z" id="形状"></path>
                </g>
            </g>
        </g>
    </g>
</svg>