<?xml version="1.0" encoding="UTF-8"?>
<svg width="23px" height="26px" viewBox="0 0 23 26" version="1.1" xmlns="http://www.w3.org/2000/svg" xmlns:xlink="http://www.w3.org/1999/xlink">
    <!-- Generator: Sketch 58 (84663) - https://sketch.com -->
    <title>女孩</title>
    <desc>Created with Sketch.</desc>
    <defs>
        <linearGradient x1="47.3531676%" y1="100%" x2="47.3531676%" y2="31.6622611%" id="linearGradient-1">
            <stop stop-color="#66412B" offset="0%"></stop>
            <stop stop-color="#A0643F" offset="100%"></stop>
        </linearGradient>
        <path d="M2.11028912,9 L20.6159014,9 C20.7654905,11.3905865 20.8999181,13.2239198 21.0191839,14.5 C21.0585607,14.92131 21.1076393,15.4033636 21.1664197,15.9461607 L21.1664207,15.9461606 C21.3448013,17.593385 20.1540682,19.0733302 18.5068438,19.2517109 C18.2215009,19.2826111 17.9332004,19.2724043 17.6507572,19.2214024 C14.9293583,18.7299891 13.0048192,18.4842825 11.87714,18.4842825 C10.7142344,18.4842825 8.52667271,18.7455797 5.31445489,19.268174 L5.31445517,19.2681757 C3.67910079,19.5342308 2.13770385,18.4241944 1.87164876,16.78884 C1.81933841,16.4673052 1.81974689,16.1393969 1.87285818,15.8179934 C1.99747891,15.0638498 2.08081391,14.4618258 2.12286319,14.0119213 C2.22520224,12.9169491 2.22101089,11.2463086 2.11028912,9 Z" id="path-2"></path>
        <filter x="-6.1%" y="-18.2%" width="113.6%" height="130.1%" filterUnits="objectBoundingBox" id="filter-3">
            <feGaussianBlur stdDeviation="1.5" in="SourceAlpha" result="shadowBlurInner1"></feGaussianBlur>
            <feOffset dx="0" dy="1" in="shadowBlurInner1" result="shadowOffsetInner1"></feOffset>
            <feComposite in="shadowOffsetInner1" in2="SourceAlpha" operator="arithmetic" k2="-1" k3="1" result="shadowInnerInner1"></feComposite>
            <feColorMatrix values="0 0 0 0 0   0 0 0 0 0   0 0 0 0 0  0 0 0 0.5 0" type="matrix" in="shadowInnerInner1"></feColorMatrix>
        </filter>
        <radialGradient cx="50%" cy="61.0962333%" fx="50%" fy="61.0962333%" r="79.1254312%" gradientTransform="translate(0.500000,0.610962),scale(0.978400,1.000000),rotate(90.000000),translate(-0.500000,-0.610962)" id="radialGradient-4">
            <stop stop-color="#FFECE0" offset="0%"></stop>
            <stop stop-color="#F9CDB1" offset="100%"></stop>
        </radialGradient>
        <ellipse id="path-5" cx="11.3630952" cy="10" rx="9.19869615" ry="9"></ellipse>
        <filter x="-5.4%" y="-5.6%" width="110.9%" height="111.1%" filterUnits="objectBoundingBox" id="filter-6">
            <feGaussianBlur stdDeviation="0.5" in="SourceAlpha" result="shadowBlurInner1"></feGaussianBlur>
            <feOffset dx="0" dy="-1" in="shadowBlurInner1" result="shadowOffsetInner1"></feOffset>
            <feComposite in="shadowOffsetInner1" in2="SourceAlpha" operator="arithmetic" k2="-1" k3="1" result="shadowInnerInner1"></feComposite>
            <feColorMatrix values="0 0 0 0 0.863337862   0 0 0 0 0.48217288   0 0 0 0 0.48217288  0 0 0 0.5 0" type="matrix" in="shadowInnerInner1"></feColorMatrix>
        </filter>
        <linearGradient x1="50%" y1="61.0962333%" x2="50%" y2="100%" id="linearGradient-7">
            <stop stop-color="#FFE2D1" offset="0%"></stop>
            <stop stop-color="#F9CDB1" offset="100%"></stop>
        </linearGradient>
        <path d="M2.38007462,10.1092855 L2.47747615,10.1105256 L2.47747615,10.1105256 L2.51683552,13.0070652 L2.41943399,13.0058251 C1.61347552,12.9955636 0.962419765,12.3450651 0.951468194,11.5391157 C0.94088176,10.7600375 1.56386744,10.1198878 2.34294565,10.1093014 C2.35532136,10.1091332 2.36769876,10.1091279 2.38007462,10.1092855 Z" id="path-8"></path>
        <filter x="-61.9%" y="-33.7%" width="224.9%" height="168.0%" filterUnits="objectBoundingBox" id="filter-9">
            <feGaussianBlur stdDeviation="0.5" in="SourceAlpha" result="shadowBlurInner1"></feGaussianBlur>
            <feOffset dx="0" dy="-1" in="shadowBlurInner1" result="shadowOffsetInner1"></feOffset>
            <feComposite in="shadowOffsetInner1" in2="SourceAlpha" operator="arithmetic" k2="-1" k3="1" result="shadowInnerInner1"></feComposite>
            <feColorMatrix values="0 0 0 0 0.863337862   0 0 0 0 0.48217288   0 0 0 0 0.48217288  0 0 0 0.5 0" type="matrix" in="shadowInnerInner1"></feColorMatrix>
        </filter>
        <path d="M21.7211479,9.88082502 L21.8185495,9.88206513 L21.8185495,9.88206513 L21.8579088,12.7786047 L21.7605073,12.7773646 C20.9545488,12.7671031 20.3034931,12.1166046 20.2925415,11.3106552 C20.2819551,10.531577 20.9049407,9.89142735 21.684019,9.88084091 C21.6963947,9.88067275 21.7087721,9.88066745 21.7211479,9.88082502 Z" id="path-10"></path>
        <filter x="-61.9%" y="-33.7%" width="224.9%" height="168.0%" filterUnits="objectBoundingBox" id="filter-11">
            <feGaussianBlur stdDeviation="0.5" in="SourceAlpha" result="shadowBlurInner1"></feGaussianBlur>
            <feOffset dx="0" dy="-1" in="shadowBlurInner1" result="shadowOffsetInner1"></feOffset>
            <feComposite in="shadowOffsetInner1" in2="SourceAlpha" operator="arithmetic" k2="-1" k3="1" result="shadowInnerInner1"></feComposite>
            <feColorMatrix values="0 0 0 0 0.863337862   0 0 0 0 0.48217288   0 0 0 0 0.48217288  0 0 0 0.5 0" type="matrix" in="shadowInnerInner1"></feColorMatrix>
        </filter>
        <linearGradient x1="47.3531676%" y1="100%" x2="47.3531676%" y2="31.6622611%" id="linearGradient-12">
            <stop stop-color="#66412B" offset="0%"></stop>
            <stop stop-color="#A0643F" offset="100%"></stop>
        </linearGradient>
        <path d="M11.8722142,0 C17.0436222,0 21.6439909,4.3429231 21.6439909,8.03358758 C21.6439909,8.69720246 21.495255,9.38190571 21.2212076,10.058658 C20.0732122,8.92812213 18.5062831,8.25674279 16.8242022,8.25674279 L16.8242022,8.25674279 L14.5185582,8.25674279 C13.187939,8.25674279 11.9299963,7.64976171 11.101964,6.60817167 L11.101964,6.60817167 L10.0747841,5.31607186 C10.0640501,5.30256951 10.052454,5.28977562 10.0400684,5.2777703 C9.8814423,5.12401494 9.62820709,5.12796344 9.47445173,5.28658954 L9.47445173,5.28658954 L8.01775043,6.78943688 C7.10864348,7.72734292 5.8582196,8.25674279 4.55202544,8.25674279 C3.60279883,8.25674279 2.75177225,8.77261769 2.30052628,9.56639184 C2.21092779,9.16997755 2.16439909,8.76651973 2.16439909,8.35971689 C2.16439909,4.3429231 6.70080615,0 11.8722142,0 Z" id="path-13"></path>
        <filter x="-1.3%" y="-2.5%" width="102.6%" height="110.5%" filterUnits="objectBoundingBox" id="filter-14">
            <feOffset dx="0" dy="0.5" in="SourceAlpha" result="shadowOffsetOuter1"></feOffset>
            <feColorMatrix values="0 0 0 0 0.861299819   0 0 0 0 0.570452297   0 0 0 0 0.499317563  0 0 0 0.5 0" type="matrix" in="shadowOffsetOuter1"></feColorMatrix>
        </filter>
        <linearGradient x1="50%" y1="127.226668%" x2="50%" y2="-32.6979821%" id="linearGradient-15">
            <stop stop-color="#EA2C2C" offset="0%"></stop>
            <stop stop-color="#FF6A99" offset="100%"></stop>
        </linearGradient>
        <filter x="-69.3%" y="-150.0%" width="238.6%" height="400.0%" filterUnits="objectBoundingBox" id="filter-16">
            <feGaussianBlur stdDeviation="1" in="SourceGraphic"></feGaussianBlur>
        </filter>
        <filter x="-69.3%" y="-150.0%" width="238.6%" height="400.0%" filterUnits="objectBoundingBox" id="filter-17">
            <feGaussianBlur stdDeviation="1" in="SourceGraphic"></feGaussianBlur>
        </filter>
        <path d="M5.41099773,20.199054 C5.41099773,21.3996847 5.77173091,22 6.49319728,22 C7.57539683,22 11.904195,21.4049143 11.904195,20.5844749 C11.904195,20.0375153 10.4612623,19.509357 7.57539683,19 L5.41099773,20.199054 Z" id="path-18"></path>
        <filter x="-3.1%" y="-6.7%" width="106.2%" height="126.7%" filterUnits="objectBoundingBox" id="filter-19">
            <feOffset dx="0" dy="0.4" in="SourceAlpha" result="shadowOffsetOuter1"></feOffset>
            <feColorMatrix values="0 0 0 0 0.944519928   0 0 0 0 0.322806963   0 0 0 0 0.322806963  0 0 0 0.869591346 0" type="matrix" in="shadowOffsetOuter1"></feColorMatrix>
        </filter>
        <path d="M10.8219955,20.199054 C10.8219955,21.3996847 11.2428508,22 12.0845616,22 C13.3471277,22 18.3973923,21.4049143 18.3973923,20.5844749 C18.3973923,20.0375153 16.7139708,19.509357 13.3471277,19 L10.8219955,20.199054 Z" id="path-20"></path>
        <filter x="-2.6%" y="-6.7%" width="105.3%" height="126.7%" filterUnits="objectBoundingBox" id="filter-21">
            <feOffset dx="0" dy="0.4" in="SourceAlpha" result="shadowOffsetOuter1"></feOffset>
            <feColorMatrix values="0 0 0 0 0.944519928   0 0 0 0 0.322806963   0 0 0 0 0.322806963  0 0 0 0.869591346 0" type="matrix" in="shadowOffsetOuter1"></feColorMatrix>
        </filter>
    </defs>
    <g id="熊小武" stroke="none" stroke-width="1" fill="none" fill-rule="evenodd">
        <g id="我的备份-7" transform="translate(-30.000000, -307.000000)">
            <g id="编组-20" transform="translate(16.000000, 293.000000)">
                <g id="女孩" transform="translate(14.821429, 14.000000)">
                    <path d="M4.53019767,24.5330603 L5.30231322,21 L5.30231322,21 L18.4669291,21.1976558 L19.2390048,24.420898 C19.3676746,24.9579945 19.0365632,25.4976948 18.4994629,25.6263485 C18.472506,25.6328056 18.4452923,25.6381391 18.4178924,25.6423351 C16.9020909,25.8744648 14.5555567,25.9936053 11.3782898,25.9997567 C8.52704417,26.0052768 6.51850843,25.9168792 5.35268257,25.7345638 C4.80699578,25.6492767 4.43381297,25.1377385 4.51914796,24.5920592 C4.52224003,24.5722868 4.52592493,24.5526116 4.53019767,24.5330603 Z" id="路径-36" fill="#FD6D79"></path>
                    <g id="矩形">
                        <use fill="url(#linearGradient-1)" fill-rule="evenodd" xlink:href="#path-2"></use>
                        <use fill="black" fill-opacity="1" filter="url(#filter-3)" xlink:href="#path-2"></use>
                    </g>
                    <rect id="矩形" fill="#E9B59A" x="9.73979592" y="18" width="4.32879819" height="4" rx="1"></rect>
                    <g id="形状结合">
                        <use fill="url(#radialGradient-4)" fill-rule="evenodd" xlink:href="#path-5"></use>
                        <use fill="black" fill-opacity="1" filter="url(#filter-6)" xlink:href="#path-5"></use>
                    </g>
                    <g id="矩形" transform="translate(1.724312, 11.548956) rotate(-11.000000) translate(-1.724312, -11.548956) ">
                        <use fill="url(#linearGradient-7)" fill-rule="evenodd" xlink:href="#path-8"></use>
                        <use fill="black" fill-opacity="1" filter="url(#filter-9)" xlink:href="#path-8"></use>
                    </g>
                    <g id="矩形备份-4" transform="translate(21.065385, 11.320495) scale(-1, 1) rotate(-11.000000) translate(-21.065385, -11.320495) ">
                        <use fill="url(#linearGradient-7)" fill-rule="evenodd" xlink:href="#path-10"></use>
                        <use fill="black" fill-opacity="1" filter="url(#filter-11)" xlink:href="#path-10"></use>
                    </g>
                    <g id="形状结合">
                        <use fill="black" fill-opacity="1" filter="url(#filter-14)" xlink:href="#path-13"></use>
                        <use fill="url(#linearGradient-12)" fill-rule="evenodd" xlink:href="#path-13"></use>
                    </g>
                    <path d="M9.73979592,14 L12.9863946,14 L12.9863946,14.3767007 C12.9863946,15.2732241 12.2596187,16 11.3630952,16 C10.4665718,16 9.73979592,15.2732241 9.73979592,14.3767007 L9.73979592,14 L9.73979592,14 Z" id="矩形" fill="url(#linearGradient-15)"></path>
                    <ellipse id="椭圆形" fill="#73492F" cx="9.19869615" cy="11" rx="1" ry="1"></ellipse>
                    <ellipse id="椭圆形" fill="#FE8E7A" filter="url(#filter-16)" cx="7.57539683" cy="14" rx="2.16439909" ry="1"></ellipse>
                    <ellipse id="椭圆形" fill="#FE8E7A" filter="url(#filter-17)" cx="15.1507937" cy="14" rx="2.16439909" ry="1"></ellipse>
                    <path d="M13.5274943,12 C13.8263355,12 14.0685941,11.5522847 14.0685941,11 C14.0685941,10.4477153 13.8263355,10 13.5274943,10 C13.2286532,10 12.9863946,10.4477153 12.9863946,11 C12.9863946,11.5522847 13.2286532,12 13.5274943,12 Z" id="椭圆形" fill="#73492F"></path>
                    <g id="路径-35" transform="translate(8.657596, 20.500000) scale(-1, 1) translate(-8.657596, -20.500000) ">
                        <use fill="black" fill-opacity="1" filter="url(#filter-19)" xlink:href="#path-18"></use>
                        <use fill="#FFE2E2" fill-rule="evenodd" xlink:href="#path-18"></use>
                    </g>
                    <g id="路径-35">
                        <use fill="black" fill-opacity="1" filter="url(#filter-21)" xlink:href="#path-20"></use>
                        <use fill="#FFE2E2" fill-rule="evenodd" xlink:href="#path-20"></use>
                    </g>
                </g>
            </g>
        </g>
    </g>
</svg>