<?xml version="1.0" encoding="UTF-8"?>
<svg width="20px" height="20px" viewBox="0 0 20 20" version="1.1" xmlns="http://www.w3.org/2000/svg" xmlns:xlink="http://www.w3.org/1999/xlink">
    <!-- Generator: Sketch 58 (84663) - https://sketch.com -->
    <title>关于我们</title>
    <desc>Created with Sketch.</desc>
    <g id="熊小武" stroke="none" stroke-width="1" fill="none" fill-rule="evenodd">
        <g id="我的备份-7" transform="translate(-178.000000, -507.000000)" stroke="#F7B500" stroke-width="1.5">
            <g id="关于我们" transform="translate(178.000000, 507.000000)">
                <g id="wanjuxiong">
                    <g id="形状结合-2">
                        <path d="M10,19.25 C11.2484916,19.25 12.4615791,19.0051373 13.6008008,18.5232665 C14.7004133,18.0595411 15.6886314,17.3927915 16.5407115,16.5407115 C17.3927915,15.6886314 18.0595411,14.7004133 18.5233245,13.6006635 C19.0055398,12.4578411 19.25,11.2474477 19.25,10 C19.25,8.75255229 19.0055398,7.54215887 18.5232665,6.39919919 C18.0595411,5.29958671 17.3927915,4.31136859 16.5407115,3.45928854 C15.6886314,2.6072085 14.7004133,1.94045893 13.6006635,1.47667554 C12.4578411,0.994460245 11.2474477,0.75 10,0.75 C8.75255229,0.75 7.54215887,0.994460245 6.39919919,1.47673346 C5.29958671,1.94045893 4.31136859,2.6072085 3.45928854,3.45928854 C2.6072085,4.31136859 1.94045893,5.29958671 1.47667554,6.39933649 C0.994460245,7.54215887 0.75,8.75255229 0.75,10 C0.75,11.2474477 0.994460245,12.4578411 1.47673346,13.6008008 C1.94045893,14.7004133 2.6072085,15.6886314 3.45928854,16.5407115 C4.31136859,17.3927915 5.29958671,18.0595411 6.39933649,18.5233245 C7.54215887,19.0055398 8.75255229,19.25 10,19.25 Z M10,0.854455148 C15.0450332,0.854455148 19.1488236,4.95722948 19.1455467,10 C19.1455467,15.0439544 15.043955,19.1455449 10,19.1455449 C4.95604532,19.1455449 0.854455148,15.0439547 0.854455148,10 C0.854455148,4.95604532 4.95604532,0.854455148 10,0.854455148 Z" id="形状结合"></path>
                    </g>
                </g>
                <circle id="椭圆形" fill="#F7B500" cx="6" cy="8" r="1"></circle>
                <circle id="椭圆形备份-3" fill="#F7B500" cx="14" cy="8" r="1"></circle>
                <path d="M6,12 C7.13239058,13.3386409 8.47370481,14.0079614 10.0239427,14.0079614 C11.6312232,14.0079614 12.9565756,13.3386409 14,12" id="路径-67" stroke-linecap="round"></path>
            </g>
        </g>
    </g>
</svg>