<?xml version="1.0" encoding="UTF-8"?>
<svg width="24px" height="21px" viewBox="0 0 24 21" version="1.1" xmlns="http://www.w3.org/2000/svg" xmlns:xlink="http://www.w3.org/1999/xlink">
    <!-- Generator: Sketch 58 (84663) - https://sketch.com -->
    <title>家庭组</title>
    <desc>Created with Sketch.</desc>
    <g id="熊小武" stroke="none" stroke-width="1" fill="none" fill-rule="evenodd" stroke-linecap="round" stroke-linejoin="round">
        <g id="我的备份-7" transform="translate(-292.000000, -414.000000)" stroke="#F78BBC">
            <g id="编组-11" transform="translate(287.000000, 414.000000)">
                <g id="家庭组" transform="translate(6.666667, 0.000000)">
                    <path d="M6.20417705,8.90291456 L2.48137463,8.90291456 C1.92908988,8.90291456 1.48137463,8.45519931 1.48137463,7.90291456 C1.48137463,7.63103352 1.59207688,7.37087243 1.787984,7.18235267 L6.50234616,2.64576181 C8.04134475,1.16479647 10.4723451,1.15418786 12.0242104,2.62166503 L18.0408175,8.31109816 C18.4403129,8.68886955 18.6666667,9.21444514 18.6666667,9.76427034 L18.6666667,15 L18.6666667,15 L18.6666667,16 C18.6666667,18.209139 16.8758057,20 14.6666667,20 L6.20417705,20 L6.20417705,20" id="路径-31" stroke-width="1.5" transform="translate(9.333333, 10.000000) scale(-1, 1) translate(-9.333333, -10.000000) "></path>
                    <g transform="translate(11.666667, 11.578947)" id="形状">
                        <path d="M6.76666106,0 C5.9500028,0 5.18027315,0.321210377 4.66666133,0.843288371 C4.15304951,0.321201022 3.3833412,0 2.5666616,0 C1.11972604,0 0,0.963621776 0,2.20848629 C0,3.73438766 1.58639859,4.95905779 3.98990348,6.84632435 L4.66666134,7.36842105 L5.3434192,6.84632435 C7.74694541,4.95905779 9.33333333,3.73438766 9.33333333,2.20848629 C9.33333333,0.963621776 8.21360729,0 6.76666106,0 L6.76666106,0 Z M4.85990184,6.39240004 L4.66667199,6.54150903 L4.47345281,6.39240004 L4.37911551,6.31804206 C3.2475373,5.42997607 2.27091206,4.66302956 1.62469675,3.97723487 C0.997609202,3.31102629 0.717787033,2.76554417 0.717787033,2.20847693 C0.717787033,1.76973116 0.906920364,1.3655816 1.25007856,1.07035814 C1.59188192,0.776135986 2.05946123,0.61401949 2.56668292,0.61401949 C3.15319998,0.61401949 3.73290019,0.84749007 4.11754633,1.23846369 L4.66669332,1.79732764 L5.21586165,1.23846369 C5.60049711,0.84749007 6.18017598,0.61401949 6.76669306,0.61401949 C7.2739254,0.61401949 7.74150471,0.776135986 8.08329741,1.07035814 C8.42646628,1.3655816 8.61558894,1.76973116 8.61558894,2.20847693 C8.61558894,2.7655348 8.33576677,3.31101694 7.70868989,3.97723487 C7.06244259,4.66302956 6.08580669,5.42997607 4.95469787,6.31804206 L4.85990184,6.39240004 Z"></path>
                    </g>
                </g>
            </g>
        </g>
    </g>
</svg>