<?xml version="1.0" standalone="no"?><!DOCTYPE svg PUBLIC "-//W3C//DTD SVG 1.1//EN" "http://www.w3.org/Graphics/SVG/1.1/DTD/svg11.dtd"><svg t="1607202418031" class="icon" viewBox="0 0 1027 1024" version="1.1" xmlns="http://www.w3.org/2000/svg" p-id="3132" width="18.052734375" height="18" xmlns:xlink="http://www.w3.org/1999/xlink"><defs><style type="text/css"></style></defs><path d="M674.415043 271.383278h55.322761c10.795369 0 31.040191 8.874634 31.04019 19.627943v476.678626c0 10.795369-20.048542 30.843911-31.04019 30.843911H297.194011c-10.795369 0-30.843911-20.048542-30.843911-30.843911v-476.678626c0-10.795369 19.852263-22.361836 30.843911-22.361835l62.45892-0.19628 2.313293 0.19628c9.253173-1.401996 15.996774-7.136159 15.996774-16.823952a19.305484 19.305484 0 0 0-16.571592-19.081165l-1.934754-0.392558h-62.45892a58.88383 58.88383 0 0 0-58.98197 58.79971v476.678626a58.88383 58.88383 0 0 0 58.98197 58.78569H729.541524a58.88383 58.88383 0 0 0 58.98197-58.78569V291.039261A58.88383 58.88383 0 0 0 729.541524 232.253571h-58.603431l-6.7436 0.196279a19.473724 19.473724 0 1 0 0 38.933428z m-58.98197-3.266651a18.898906 18.898906 0 0 1-37.783791 0v-52.252389a18.898906 18.898906 0 0 1 37.783791 0z m-170.006029 0a18.898906 18.898906 0 0 1-37.783791 0v-52.252389a18.898906 18.898906 0 0 1 37.783791 0z m155.355172 224.739952c-61.870082 0-69.777339 31.615009-69.777339 55.71532v125.478638c0 8.411976-6.743601 18.884886-17.931528 18.884885-10.40281 0-18.310067-9.813972-18.310068-19.473723v-128.745289c0-13.87976-4.051768-87.512588-69.20252-89.251063-36.816414 0-56.472397-18.884886-56.472397-44.527391 0-21.394458 13.683481-45.298489 50.892453-45.29849 68.038864 0 93.302831 60.916724 93.302831 115.650647 8.860614-37.783791 44.527392-72.90379 94.256188-72.90379 24.871408 0 50.471854 14.650858 50.471855 46.644405-0.196279 17.735249-12.533844 37.783791-57.243495 37.783792z m0 0" fill="#FF8300" p-id="3133"></path><path d="M983.849571 313.387077A511.938824 511.938824 0 1 0 1023.960676 512.063924a508.602074 508.602074 0 0 0-40.111105-198.676847zM513.634147 981.970909c-259.116893 0-469.977085-210.818132-469.977085-469.906985S254.517254 42.100859 513.634147 42.100859s469.935025 210.818132 469.935025 469.963065S772.69496 981.970909 513.634147 981.970909z" fill="#FF8300" p-id="3134"></path></svg>