<?xml version="1.0" standalone="no"?><!DOCTYPE svg PUBLIC "-//W3C//DTD SVG 1.1//EN" "http://www.w3.org/Graphics/SVG/1.1/DTD/svg11.dtd"><svg t="1607203941653" class="icon" viewBox="0 0 1024 1024" version="1.1" xmlns="http://www.w3.org/2000/svg" p-id="5195" width="40" height="40" xmlns:xlink="http://www.w3.org/1999/xlink"><defs><style type="text/css"></style></defs><path d="M691.374545 549.236364l-115.781818-16.872728-51.781818-105.309091a19.549091 19.549091 0 0 0-32.581818 0L439.272727 532.363636l-116.363636 16.872728a17.454545 17.454545 0 0 0-14.545455 12.218181 17.454545 17.454545 0 0 0 4.654546 18.618182l83.2 82.618182-19.781818 115.781818a19.083636 19.083636 0 0 0 6.981818 18.036364 17.92 17.92 0 0 0 11.054545 3.490909 16.407273 16.407273 0 0 0 8.727273-2.327273l104.145455-54.690909 104.145454 54.690909a21.585455 21.585455 0 0 0 8.727273 2.327273 19.141818 19.141818 0 0 0 11.054545-3.490909 18.269091 18.269091 0 0 0 7.563637-18.036364l-19.781819-115.781818 83.781819-82.036364a17.454545 17.454545 0 0 0 4.654545-18.618181 22.516364 22.516364 0 0 0-16.290909-12.8h0.174545z m-109.963636 90.181818a23.272727 23.272727 0 0 0-6.981818 20.945454l13.381818 78.545455-70.4-36.654546a24.087273 24.087273 0 0 0-11.054545-2.90909 26.123636 26.123636 0 0 0-11.054546 2.90909l-69.818182 36.072728 13.381819-78.545455a23.970909 23.970909 0 0 0-6.981819-20.945454l-57.018181-55.272728 78.545454-11.636363a22.4 22.4 0 0 0 17.454546-12.8l34.90909-70.981818 35.49091 70.981818a23.272727 23.272727 0 0 0 17.454545 12.8l78.545455 11.636363-55.854546 55.854546z" fill="#2E92FF" p-id="5196"></path><path d="M542.429091 559.709091L506.938182 488.727273l-34.909091 70.981818a23.272727 23.272727 0 0 1-17.454546 12.8l-78.545454 11.636364 57.018182 55.272727a23.272727 23.272727 0 0 1 6.981818 20.945454l-14.545455 77.963637 70.4-36.654546a23.272727 23.272727 0 0 1 21.527273 0l70.4 36.654546-13.381818-78.545455a23.970909 23.970909 0 0 1 6.981818-20.945454l57.018182-55.272728-78.545455-11.636363a21.410909 21.410909 0 0 1-17.454545-12.218182z" fill="#71BCFF" p-id="5197"></path><path d="M858.938182 398.545455l155.927273-278.69091C997.818182 106.472727 910.545455 44.8 851.374545 2.909091H162.501818c-56.436364 41.309091-139.636364 101.818182-155.927273 115.2l148.363637 281.018182-1.745455 2.327272a396.509091 396.509091 0 0 0-42.472727 102.4h0.581818l-1.745454 6.4a422.632727 422.632727 0 0 0-12.8 98.327273c0 226.536727 183.645091 410.181818 410.181818 410.181818s410.181818-183.645091 410.181818-410.181818a405.992727 405.992727 0 0 0-56.436364-207.127273l-1.745454-2.90909z m79.127273-275.781819l2.327272 4.654546-2.909091 4.072727-115.2 215.272727-4.654545-5.236363a414.08 414.08 0 0 0-72.727273-66.327273l-4.072727-2.909091 107.054545-212.945454 90.181819 63.418181z m-150.69091-72.145454l-94.836363 192-4.072727-2.327273a414.72 414.72 0 0 0-180.945455-41.890909 408.494545 408.494545 0 0 0-140.218182 25.6l-4.072727 1.163636c-0.581818 0-5.236364 2.327273-6.981818 2.909091 0 0-9.309091 3.490909-11.054546 4.072728v0.581818l-8.727272 3.490909-8.727273 3.490909-4.072727 2.327273-95.418182-192 559.127272 0.581818zM75.229091 130.327273l-2.909091-4.072728 93.090909-66.327272 107.054546 212.945454-4.072728 2.909091a414.08 414.08 0 0 0-72.727272 66.327273l-4.654546 5.236364-115.781818-217.018182z m431.709091 830.254545a350.487273 350.487273 0 0 1-329.890909-473.018182l1.745454-4.654545c1.163636-2.327273 1.745455-5.236364 2.909091-7.563636a314.181818 314.181818 0 0 1 15.127273-32 351.767273 351.767273 0 0 1 153.018182-149.527273 344.552727 344.552727 0 0 1 157.672727-38.4 352.581818 352.581818 0 1 1-0.581818 705.163636z" fill="#2E92FF" p-id="5198"></path><path d="M377.192727 838.4c-53.527273-30.254545-86.109091-69.818182-112.872727-138.472727l-1.745455-4.072728a20.654545 20.654545 0 0 0-19.2-11.054545 13.265455 13.265455 0 0 0-6.4 1.745455 21.876364 21.876364 0 0 0-12.218181 24.436363l1.745454 5.818182c29.672727 76.218182 68.072727 123.927273 129.745455 158.836364 0 0 8.145455 5.236364 11.636363 4.654545h2.909091a20.654545 20.654545 0 0 0 5.818182-1.163636 22.632727 22.632727 0 0 0 11.054546-28.509091 20.247273 20.247273 0 0 0-10.472728-12.218182z" fill="#2E92FF" p-id="5199"></path></svg>