<?xml version="1.0" encoding="UTF-8"?>
<svg width="20px" height="20px" viewBox="0 0 20 20" version="1.1" xmlns="http://www.w3.org/2000/svg" xmlns:xlink="http://www.w3.org/1999/xlink">
    <!-- Generator: Sketch 58 (84663) - https://sketch.com -->
    <title>客服</title>
    <desc>Created with Sketch.</desc>
    <g id="熊小武" stroke="none" stroke-width="1" fill="none" fill-rule="evenodd">
        <g id="我的备份-7" transform="translate(-68.000000, -505.000000)" fill="#44D7B6" fill-rule="nonzero">
            <g id="编组-10" transform="translate(54.000000, 505.000000)">
                <g id="kefu-3" transform="translate(14.000000, 0.000000)">
                    <path d="M20,10.6362153 C20,9.32028276 19.2139738,8.1783578 18.0458515,7.53670473 C18.0458515,7.51495378 18.0567686,7.48232735 18.0567686,7.4605764 C18.0567686,3.34964655 14.4759825,0 10.0655022,0 C5.66593886,0 2.07423581,3.34964655 2.07423581,7.4605764 L2.07423581,7.47145188 C0.840611354,8.091354 0,9.27678086 0,10.6253399 C0,12.6264274 1.81222707,14.2468733 4.05021834,14.2468733 C4.45414847,14.2468733 4.78165939,13.920609 4.78165939,13.5182164 L4.78165939,7.7324633 C4.78165939,7.33007069 4.45414847,7.00380642 4.05021834,7.00380642 C3.87554585,7.00380642 3.71179039,7.01468189 3.54803493,7.03643284 C3.78820961,3.91517129 6.60480349,1.44643828 10.0545852,1.44643828 C13.5043668,1.44643828 16.3427948,3.92604676 16.5611354,7.0581838 C16.3537118,7.02555737 16.1462882,7.01468189 15.9388646,7.01468189 C15.5349345,7.01468189 15.2074236,7.34094617 15.2074236,7.74333877 L15.2074236,13.5290919 C15.2074236,13.9314845 15.5349345,14.2577488 15.9388646,14.2577488 C16.069869,14.2577488 16.2008734,14.2468733 16.3318777,14.2359978 C16.0917031,16.6503535 13.8755459,18.5426862 11.1899563,18.5426862 C10.7859926,18.5426862 10.4585153,18.868917 10.4585153,19.2713431 C10.4585153,19.6737692 10.7859926,20 11.1899563,20 C14.8253275,20 17.7838428,17.2376291 17.8056769,13.8444807 C19.1157205,13.2354541 20,12.0282762 20,10.6362153 Z M3.34061135,12.7134312 C2.27074236,12.4524198 1.47379913,11.6150082 1.47379913,10.6253399 C1.47379913,9.63567156 2.25982533,8.8091354 3.34061135,8.5372485 L3.34061135,12.7134312 Z M16.6812227,12.7134312 L16.6812227,8.54812398 C17.7620087,8.8091354 18.5480349,9.64654704 18.5480349,10.6362153 C18.5480349,11.6258836 17.7620087,12.4524198 16.6812227,12.7134312 L16.6812227,12.7134312 Z" id="形状"></path>
                </g>
            </g>
        </g>
    </g>
</svg>