<?xml version="1.0" encoding="UTF-8"?>
<svg width="23px" height="24px" viewBox="0 0 23 24" version="1.1" xmlns="http://www.w3.org/2000/svg" xmlns:xlink="http://www.w3.org/1999/xlink">
    <!-- Generator: Sketch 58 (84663) - https://sketch.com -->
    <title>课时情况</title>
    <desc>Created with Sketch.</desc>
    <g id="熊小武" stroke="none" stroke-width="1" fill="none" fill-rule="evenodd">
        <g id="我的备份-7" transform="translate(-131.000000, -166.000000)">
            <g id="编组-24" transform="translate(16.000000, 147.000000)">
                <g id="课时情况" transform="translate(115.000000, 19.000000)">
                    <rect id="矩形" fill="#FF8300" x="0" y="2" width="23" height="22" rx="4"></rect>
                    <path d="M7,2 L7,3 L8,2 L6,2 L7,3 L7,2 Z" id="路径" stroke="#FF8300" stroke-width="2"></path>
                    <path d="M16,2 L16,3 L17,2 L15,2 L16,3 L16,2 Z" id="路径" stroke="#FF8300" stroke-width="2"></path>
                    <path d="M7,17 L16,17 C16.5522847,17 17,17.4477153 17,18 C17,18.5522847 16.5522847,19 16,19 L7,19 C6.44771525,19 6,18.5522847 6,18 C6,17.4477153 6.44771525,17 7,17 Z" id="路径" fill="#FFFFFF" opacity="0.498070126"></path>
                    <g id="编组-3" transform="translate(8.000000, 7.000000)" fill="#FFFFFF">
                        <rect id="矩形" x="0" y="0" width="2" height="6" rx="1"></rect>
                        <path d="M3,2 C3.55228475,2 4,2.44771525 4,3 L4,7 C4,7.55228475 3.55228475,8 3,8 C2.44771525,8 2,7.55228475 2,7 L2,3 C2,2.44771525 2.44771525,2 3,2 Z" id="矩形" transform="translate(3.000000, 5.000000) rotate(-270.000000) translate(-3.000000, -5.000000) "></path>
                    </g>
                </g>
            </g>
        </g>
    </g>
</svg>