<?xml version="1.0" encoding="UTF-8"?>
<svg width="6px" height="10px" viewBox="0 0 6 10" version="1.1" xmlns="http://www.w3.org/2000/svg" xmlns:xlink="http://www.w3.org/1999/xlink">
    <!-- Generator: Sketch 58 (84663) - https://sketch.com -->
    <title>购课订单 价格符号</title>
    <desc>Created with Sketch.</desc>
    <defs>
        <filter x="-3.9%" y="-6.9%" width="107.9%" height="113.8%" filterUnits="objectBoundingBox" id="filter-1">
            <feMorphology radius="0.5" operator="dilate" in="SourceAlpha" result="shadowSpreadOuter1"></feMorphology>
            <feOffset dx="0" dy="0" in="shadowSpreadOuter1" result="shadowOffsetOuter1"></feOffset>
            <feGaussianBlur stdDeviation="3" in="shadowOffsetOuter1" result="shadowBlurOuter1"></feGaussianBlur>
            <feColorMatrix values="0 0 0 0 0.69140625   0 0 0 0 0.69140625   0 0 0 0 0.69140625  0 0 0 0.5 0" type="matrix" in="shadowBlurOuter1" result="shadowMatrixOuter1"></feColorMatrix>
            <feMerge>
                <feMergeNode in="shadowMatrixOuter1"></feMergeNode>
                <feMergeNode in="SourceGraphic"></feMergeNode>
            </feMerge>
        </filter>
    </defs>
    <g id="熊小武" stroke="none" stroke-width="1" fill="none" fill-rule="evenodd">
        <g id="我的-购课订单-" transform="translate(-302.000000, -182.000000)" fill="#000000">
            <g id="-mockplus-" transform="translate(16.000000, 128.000000)">
                <g id="约课日程" filter="url(#filter-1)">
                    <g id="编组-2" transform="translate(286.000000, 54.600000)">
                        <path d="M4.95593767,0.94564754 L3.26398609,2.92689017 L2.74103662,2.92689017 L1.04349945,0.945017396 C0.838174451,0.705335129 0.467799351,0.669609472 0.216246372,0.865146649 C-0.0353250036,1.06073632 -0.072862274,1.41358195 0.132425999,1.65324669 L1.22334029,2.92689017 L0.587962727,2.92689017 C0.263246052,2.92689017 0,3.17766996 0,3.48701815 C0,3.79636633 0.263246032,4.04714611 0.587962727,4.04714611 L2.43921345,4.04714611 L2.43921345,5.20417795 L0.587962727,5.20417795 C0.263246052,5.20417795 0,5.45495775 0,5.76430591 C0,6.07365408 0.263246032,6.32443387 0.587962727,6.32443389 L2.43921345,6.32443389 L2.43921345,7.97885936 C2.43921345,8.28820753 2.70245205,8.53898732 3.02716872,8.53898732 C3.3518854,8.53898732 3.615124,8.28820753 3.61512402,7.97885936 L3.61512402,6.32443389 L5.3293444,6.32443389 C5.65406107,6.32443389 5.91729968,6.0736541 5.9172997,5.76430591 C5.91729972,5.45495773 5.65406109,5.20417795 5.3293444,5.20417795 L3.61512402,5.20417795 L3.61512402,4.04714611 L5.3293444,4.04714611 C5.65406107,4.04714611 5.91729968,3.79636631 5.9172997,3.48701815 C5.91729972,3.17766998 5.65406109,2.92689019 5.3293444,2.92689017 L4.77990019,2.92689017 L5.86811355,1.65261655 C6.07303435,1.41267173 6.03496424,1.05986113 5.78308052,0.864639029 C5.53116004,0.669399417 5.16085846,0.705685214 4.95593767,0.94564754 Z" id="路径备份-2"></path>
                    </g>
                </g>
            </g>
        </g>
    </g>
</svg>