<?xml version="1.0" encoding="UTF-8"?>
<svg width="23px" height="20px" viewBox="0 0 23 20" version="1.1" xmlns="http://www.w3.org/2000/svg" xmlns:xlink="http://www.w3.org/1999/xlink">
    <!-- Generator: Sketch 58 (84663) - https://sketch.com -->
    <title>设置</title>
    <desc>Created with Sketch.</desc>
    <g id="熊小武" stroke="none" stroke-width="1" fill="none" fill-rule="evenodd" stroke-linecap="round">
        <g id="我的备份-7" transform="translate(-337.000000, -85.000000)" fill-rule="nonzero" stroke="#FFFFFF" stroke-width="1.5">
            <g id="设置" transform="translate(337.000000, 85.000000)">
                <g id="编组-19" transform="translate(1.000000, 1.000000)">
                    <circle id="椭圆形" transform="translate(10.777259, 8.568562) rotate(150.000000) translate(-10.777259, -8.568562) " cx="10.7772594" cy="8.56856188" r="3"></circle>
                    <path d="M7.91521247,-1.26121336e-13 L13.4030022,-1.26121336e-13 C14.7889094,-1.25487744e-13 16.076061,0.71739504 16.8050095,1.89611159 L19.7603859,6.67498296 C20.525342,7.91192407 20.5586422,9.46659749 19.8473526,10.7351589 L16.7783268,16.2086646 C16.0706174,17.4708408 14.7363986,18.252377 13.2893529,18.252377 L7.91521247,18.252377 C6.53525491,18.252377 5.25275135,17.5410825 4.52203139,16.370471 L1.32215821,11.2442825 C0.513066306,9.94811938 0.513066306,8.30425761 1.32215821,7.00809449 L4.52203139,1.881906 C5.25275135,0.71129453 6.53525491,-1.24979663e-13 7.91521247,-1.26121336e-13 Z" id="路径-5"></path>
                </g>
            </g>
        </g>
    </g>
</svg>