<?xml version="1.0" encoding="UTF-8"?>
<svg width="20px" height="19px" viewBox="0 0 20 19" version="1.1" xmlns="http://www.w3.org/2000/svg" xmlns:xlink="http://www.w3.org/1999/xlink">
    <!-- Generator: Sketch 58 (84663) - https://sketch.com -->
    <title>推广</title>
    <desc>Created with Sketch.</desc>
    <g id="熊小武" stroke="none" stroke-width="1" fill="none" fill-rule="evenodd">
        <g id="我的备份-7" transform="translate(-69.000000, -415.000000)" fill="#A78AF4" fill-rule="nonzero">
            <g id="编组-8" transform="translate(69.000000, 415.000000)">
                <g id="推广">
                    <path d="M20,11.5451172 L20,15.2033914 C19.9968943,17.2993254 18.2089616,18.9975421 16.0028182,19 L3.99718179,19 C1.79140455,18.9975432 0.00362301337,17.2998693 0,15.2042839 L0,3.79750105 C0.00258828873,1.70121851 1.79067224,0.00245897537 3.99718179,0 L7.79051199,0 C8.18780412,0.0134693877 8.50255418,0.323357287 8.50255418,0.701042797 C8.50255418,1.07872831 8.18780412,1.38861621 7.79051199,1.40208559 L3.99718179,1.40208559 C2.60509574,1.40257715 1.47642558,2.47406544 1.47487085,3.79660858 L1.47487085,15.202499 C1.475907,16.5250424 2.60415674,17.59693 3.99624237,17.5979144 L16.0018788,17.5979144 C17.3932312,17.5964389 18.5207578,16.5252383 18.522311,15.2033914 L18.522311,11.5451172 C18.522311,11.157781 18.8529826,10.8436282 19.2606858,10.8436282 C19.6693283,10.8436282 20,11.157781 20,11.5451172 Z" id="路径"></path>
                    <path d="M13.4461422,1.38654001 C13.0472929,1.37321997 12.7313092,1.06676794 12.7313092,0.693270007 C12.7313092,0.319772073 13.0472929,0.0133200463 13.4461422,0 L18.2587312,0 C18.6680323,0 19,0.310669681 19,0.693711295 L19,4.81361502 C18.9857668,5.18687536 18.6583059,5.48258651 18.2592027,5.48258651 C17.8600995,5.48258651 17.5326386,5.18687536 17.5184054,4.81361502 L17.5184054,2.08642939 L8.29404085,11.7666145 C8.16382952,11.9046346 7.98008847,11.9882449 7.78367694,11.9988525 C7.58726541,12.0094601 7.39446657,11.9461857 7.24815389,11.8230999 C7.10119844,11.7007077 7.01233809,11.5286115 7.00119065,11.3448052 C6.99004322,11.1609989 7.05752545,10.9805985 7.18873921,10.8434313 L16.1999654,1.38654001 L13.4461422,1.38654001 Z" id="路径"></path>
                </g>
            </g>
        </g>
    </g>
</svg>