<?xml version="1.0" standalone="no"?><!DOCTYPE svg PUBLIC "-//W3C//DTD SVG 1.1//EN" "http://www.w3.org/Graphics/SVG/1.1/DTD/svg11.dtd"><svg t="1607203874007" class="icon" viewBox="0 0 1024 1024" version="1.1" xmlns="http://www.w3.org/2000/svg" p-id="4542" width="22" height="22" xmlns:xlink="http://www.w3.org/1999/xlink"><defs><style type="text/css"></style></defs><path d="M887.466667 580.266667v204.8a34.133333 34.133333 0 0 1-34.133334 34.133333H170.666667a34.133333 34.133333 0 0 1-34.133334-34.133333v-204.8a68.266667 68.266667 0 1 0 0-136.533334V238.933333a34.133333 34.133333 0 0 1 34.133334-34.133333h682.666666a34.133333 34.133333 0 0 1 34.133334 34.133333v204.8a68.266667 68.266667 0 1 0 0 136.533334z m-68.266667 34.133333c-30.856533-17.066667-68.266667-42.9056-68.266667-102.4s37.410133-85.333333 68.266667-102.4V273.066667H204.8v136.533333c34.133333 17.066667 68.266667 46.557867 68.266667 102.4s-34.133333 85.333333-68.266667 102.4v136.533333h614.4v-136.533333z m-443.733333-238.933333h68.266666v273.066666h-68.266666v-273.066666z" fill="#FF8300" p-id="4543"></path></svg>