<?xml version="1.0" encoding="UTF-8"?>
<svg width="23px" height="18px" viewBox="0 0 23 18" version="1.1" xmlns="http://www.w3.org/2000/svg" xmlns:xlink="http://www.w3.org/1999/xlink">
    <!-- Generator: Sketch 58 (84663) - https://sketch.com -->
    <title>我是员工</title>
    <desc>Created with Sketch.</desc>
    <g id="熊小武" stroke="none" stroke-width="1" fill="none" fill-rule="evenodd">
        <g id="我的备份-7" transform="translate(-291.000000, -596.000000)" stroke="#FF8300">
            <g id="我是员工" transform="translate(291.000000, 596.000000)">
                <rect id="矩形" stroke-width="1.5" x="0.75" y="0.75" width="21.5" height="16.5" rx="4"></rect>
                <g id="编组-7" transform="translate(3.000000, 5.000000)">
                    <path d="M4.73275297,0.6 C3.74452275,0.6 2.94340388,1.40111888 2.94340388,2.38934909 L2.94340388,2.61065091 C2.94340388,3.15060938 3.18323831,3.65010446 3.59106331,3.98852632 L4.11059131,4.41964171 L3.62146551,4.88496502 L2.51799071,5.93474103 C2.34937594,6.09512588 2.25392567,6.3176513 2.25392567,6.55036193 C2.25392567,7.01960408 2.63432159,7.4 3.10356374,7.4 L6.3619422,7.4 C6.59465283,7.4 6.81717825,7.30454972 6.97756309,7.13593496 C7.30096614,6.79593693 7.28751326,6.25814409 6.94748198,5.93470941 L5.35491463,4.41964171 L5.87444263,3.98852632 C6.28226763,3.65010446 6.52210206,3.15060938 6.52210206,2.61065091 L6.52210206,2.38934909 C6.52210206,1.40111888 5.72098319,0.6 4.73275297,0.6 Z" id="形状结合" stroke-width="1.2"></path>
                    <rect id="矩形" stroke-width="1.5" x="9.21609126" y="1.75" width="5.03333333" height="1" rx="0.5"></rect>
                    <rect id="矩形" stroke-width="1.5" x="9.21609126" y="4.75" width="2.23333333" height="1" rx="0.5"></rect>
                </g>
            </g>
        </g>
    </g>
</svg>