<?xml version="1.0" encoding="UTF-8"?>
<svg width="26px" height="24px" viewBox="0 0 26 24" version="1.1" xmlns="http://www.w3.org/2000/svg" xmlns:xlink="http://www.w3.org/1999/xlink">
    <!-- Generator: Sketch 58 (84663) - https://sketch.com -->
    <title>约课记录-图标</title>
    <desc>Created with Sketch.</desc>
    <g id="熊小武" stroke="none" stroke-width="1" fill="none" fill-rule="evenodd">
        <g id="我的备份-7" transform="translate(-217.000000, -166.000000)">
            <g id="编组-24" transform="translate(16.000000, 147.000000)">
                <g id="约课记录" transform="translate(200.000000, 18.000000)">
                    <g id="编组-21">
                        <rect id="矩形" fill="#FF8300" x="2.27014071" y="1" width="24" height="24" rx="12"></rect>
                        <rect id="矩形" fill="#FFFFFF" opacity="0.499116443" x="9.27014071" y="18" width="11" height="2" rx="1"></rect>
                        <path d="M23.7078834,2.73205846 C25.0529943,2.62684595 26.3241954,3.36013893 26.9065469,4.57720909 L27.5751053,5.97444513 L27.5751053,5.97444513 L24.9922033,6.3621147 C24.4299426,6.22018019 23.763276,6.14921293 22.9922033,6.14921293 C22.2211307,6.14921293 21.5544641,6.22018019 20.9922033,6.3621147 L21.1654068,5.12412119 C21.346609,3.82895628 22.4040865,2.83403946 23.7078834,2.73205846 Z" id="矩形" fill="#FF8300" transform="translate(24.283654, 4.459785) rotate(-307.000000) translate(-24.283654, -4.459785) "></path>
                        <path d="M3.82724413,2.51491159 C5.42523561,2.17033997 7.02055406,3.10832294 7.49642862,4.67224423 L7.91259764,6.03994836 L7.91259764,6.03994836 L5,6.33744621 C4.43773928,6.19551169 3.77107261,6.12454443 3,6.12454443 C2.22892739,6.12454443 1.56226072,6.19551169 1,6.33744621 L1,6.01676876 C1,4.32928237 2.17767084,2.87060569 3.82724413,2.51491159 Z" id="矩形" fill="#FF8300" transform="translate(4.456299, 4.121362) rotate(-45.000000) translate(-4.456299, -4.121362) "></path>
                        <g id="编组-3" transform="translate(11.270141, 8.000000)" fill="#FFFFFF">
                            <rect id="矩形" x="0" y="0" width="2" height="6" rx="1"></rect>
                            <rect id="矩形" transform="translate(3.000000, 5.000000) rotate(-270.000000) translate(-3.000000, -5.000000) " x="2" y="2" width="2" height="6" rx="1"></rect>
                        </g>
                    </g>
                </g>
            </g>
        </g>
    </g>
</svg>